<?xml version="1.0" encoding="UTF-8" standalone="no"?>
<!-- Created with Inkscape (http://www.inkscape.org/) -->

<svg
   xmlns:dc="http://purl.org/dc/elements/1.1/"
   xmlns:cc="http://creativecommons.org/ns#"
   xmlns:rdf="http://www.w3.org/1999/02/22-rdf-syntax-ns#"
   xmlns:svg="http://www.w3.org/2000/svg"
   xmlns="http://www.w3.org/2000/svg"
   xmlns:sodipodi="http://sodipodi.sourceforge.net/DTD/sodipodi-0.dtd"
   xmlns:inkscape="http://www.inkscape.org/namespaces/inkscape"
   id="svg2"
   version="1.1"
   inkscape:version="0.91 r13725"
   width="2373.75"
   height="771.25"
   viewBox="0 0 2373.75 771.25"
   sodipodi:docname="GARR logo.svg">
  <metadata
     id="metadata8">
    <rdf:RDF>
      <cc:Work
         rdf:about="">
        <dc:format>image/svg+xml</dc:format>
        <dc:type
           rdf:resource="http://purl.org/dc/dcmitype/StillImage" />
        <dc:title></dc:title>
      </cc:Work>
    </rdf:RDF>
  </metadata>
  <defs
     id="defs6" />
  <sodipodi:namedview
     pagecolor="#ffffff"
     bordercolor="#666666"
     borderopacity="1"
     objecttolerance="10"
     gridtolerance="10"
     guidetolerance="10"
     inkscape:pageopacity="0"
     inkscape:pageshadow="2"
     inkscape:window-width="1369"
     inkscape:window-height="771"
     id="namedview4"
     showgrid="false"
     inkscape:zoom="0.30584518"
     inkscape:cx="1221.5195"
     inkscape:cy="264.20038"
     inkscape:window-x="0"
     inkscape:window-y="0"
     inkscape:window-maximized="0"
     inkscape:current-layer="svg2" />
  <path
     inkscape:connector-curvature="0"
     id="path3340"
     d="m 371.81304,743.13771 c -2.0625,-0.94441 -7.93178,-1.74247 -13.04285,-1.77348 -15.34654,-0.0931 -24.26126,-6.17222 -27.5787,-18.80638 -1.62819,-6.20079 -5.55689,-11.24999 -8.75345,-11.24999 -1.13531,0 -3.38531,1.40625 -5,3.125 -4.20406,4.475 -7.57819,3.92515 -13.42307,-2.1875 -10.19089,-10.65775 -17.41322,-15.93721 -21.80892,-15.94218 -5.15612,-0.006 -10.91675,-3.43537 -15.57351,-9.27163 -3.13408,-3.9279 -4.25568,-4.47697 -9.1945,-4.5011 -7.23374,-0.0354 -14.26488,-3.3508 -20.9375,-9.87281 -4.12038,-4.02738 -5.3125,-6.11503 -5.3125,-9.30329 0,-2.76854 -1.02033,-5.06925 -3.125,-7.04649 -3.70865,-3.4841 -4.08638,-8.7425 -0.83907,-11.68126 1.59158,-1.44038 4.56043,-2.06874 9.77418,-2.06874 l 7.48828,0 6.52701,-8.75 c 3.58986,-4.8125 7.0263,-8.75 7.63652,-8.75 1.6825,0 4.85914,3.52813 7.12933,7.91819 l 2.03298,3.93132 2.62538,-3.73725 c 1.44397,-2.0555 4.942,-6.12789 7.77342,-9.04976 4.15643,-4.28924 6.00435,-5.3125 9.59378,-5.3125 4.04658,0 5.2679,0.97136 13.60198,10.81815 11.91786,14.08106 12.46144,14.39501 16.53699,9.55151 4.66677,-5.54616 8.38766,-6.05952 16.61596,-2.29249 3.8117,1.74505 8.40927,3.16048 10.21681,3.14538 4.7056,-0.0394 12.33709,-3.921 19.36005,-9.84734 5.1183,-4.31907 6.94671,-5.12521 11.62458,-5.12521 3.05303,0 7.27517,0.89161 9.38252,1.98138 2.7547,1.42449 4.21276,1.60016 5.18793,0.625 0.74601,-0.74602 3.16946,-1.35638 5.38546,-1.35638 2.47922,0 5.46467,-1.20796 7.76107,-3.14025 3.20293,-2.69509 12.40425,-6.85975 15.15578,-6.85975 0.48489,0 1.63421,1.40625 2.55406,3.125 0.91985,1.71875 2.59205,3.125 3.71601,3.125 2.87747,0 9.53087,-7.22255 11.91187,-12.93084 1.81587,-4.35347 1.82183,-5.08472 0.0634,-7.76852 -5.13199,-7.83241 0.69171,-15.73241 13.68378,-18.5624 l 3.75,-0.81684 0.35183,-18.29811 0.35184,-18.2981 -4.00817,-4.1354 c -3.83609,-3.95784 -4.06089,-4.75379 -5.23558,-18.5376 -0.80101,-9.39878 -1.73181,-14.4022 -2.6793,-14.4022 -0.79855,0 -4.44587,0.88911 -8.1052,1.97581 -4.77881,1.41917 -6.89587,1.58333 -7.51431,0.58267 -0.47355,-0.76623 -1.73529,-1.05767 -2.80384,-0.64762 -1.62858,0.62494 -1.84225,-0.1468 -1.32103,-4.77113 0.62112,-5.51052 0.6168,-5.5175 -3.85947,-6.24389 -5.11025,-0.82929 -15.1045,-7.25727 -17.11003,-11.00464 -1.09985,-2.05509 -0.64653,-3.57004 2.48127,-8.29215 2.10482,-3.17771 3.82486,-6.1031 3.82228,-6.50085 -0.0139,-2.14836 -5.23987,-8.8482 -6.90174,-8.8482 -1.06874,0 -4.14835,1.125 -6.84358,2.5 -2.69522,1.375 -6.2859,2.5 -7.9793,2.5 -3.86465,0 -10.7707,-5.68164 -10.7707,-8.86111 0,-1.67849 -0.87918,-2.38889 -2.95642,-2.38889 -3.83163,0 -8.84307,-3.98446 -10.55896,-8.39514 -0.74457,-1.91392 -2.56367,-8.09764 -4.04243,-13.74159 -1.47877,-5.64393 -3.49362,-10.92976 -4.47744,-11.74627 -1.84093,-1.52783 -2.4117,-1.35139 -10.29926,3.18355 -2.74627,1.57896 -3.23539,1.38735 -6.78835,-2.65925 -3.33314,-3.79621 -4.4065,-4.28436 -8.2905,-3.77038 -2.4539,0.32474 -6.78843,1.47437 -9.63227,2.55473 -4.22631,1.60555 -5.89372,1.69135 -9.12992,0.46982 l -3.95929,-1.49446 0.83804,-7.82551 c 0.92726,-8.65864 0.74607,-8.82576 -6.35308,-5.85955 -8.76186,3.66094 -13.79945,0.42011 -15.68548,-10.09095 -0.89029,-4.9616 -2.5843,-9.06168 -5.0052,-12.11419 -2.01269,-2.53781 -3.66805,-5.91281 -3.67858,-7.5 -0.0265,-3.99861 -0.79039,-4.85536 -9.65601,-10.83031 -8.20969,-5.53287 -11.57488,-10.21603 -11.57488,-16.10815 0,-4.33153 -8.32164,-12.99539 -15.25271,-15.87997 -4.70739,-1.95912 -7.51188,-1.49792 -12.46271,2.04952 -1.56079,1.11836 -2.8604,1.14703 -5.12943,0.11325 -2.77171,-1.26288 -3.09936,-2.3014 -3.72525,-11.80738 -0.89359,-13.57167 -1.3209,-14.44145 -7.59033,-15.4495 -2.86801,-0.46115 -6.62082,-1.72832 -8.33957,-2.81595 -5.37514,-3.40136 -13.75,-12.76403 -13.75,-15.3718 0,-1.37146 1.40625,-5.26867 3.125,-8.66046 4.45775,-8.79695 4.13795,-13.87158 -1.25,-19.8354 -4.85281,-5.37149 -5.10908,-7.11306 -2.96074,-20.12174 2.04473,-12.38122 1.21951,-14.46155 -6.468,-16.30575 -6.84934,-1.64314 -17.53467,-8.95098 -25.17729,-17.2191 -3.96623,-4.29084 -5.72055,-5.17709 -12.62956,-6.38023 -4.41294,-0.76848 -10.77772,-2.23278 -14.14396,-3.25399 -3.36625,-1.02121 -7.28539,-1.86283 -8.70921,-1.87028 -2.88912,-0.0151 -20.974026,14.74769 -28.007046,22.86226 -2.50226,2.88708 -5.8116,7.33148 -7.35408,9.87644 -5.3774,8.87229 -24.42926,14.75051 -35.72509,11.02255 -2.56545,-0.84667 -6.54605,-3.19147 -8.84578,-5.21066 l -4.18132,-3.67124 5.32947,-5.32947 c 9.98797,-9.98798 8.31134,-13.69175 -10.43274,-23.04657 l -11.805341,-5.89188 -2.20106,-7.5 c -1.56157,-5.32095 -3.38567,-8.50015 -6.27831,-10.9424 l -4.0772401,-3.44239 2.83952,-1.98887 c 1.5617401,-1.09389 4.3556301,-3.29408 6.2086401,-4.88931 l 3.36913,-2.90043 -2.19851,-8.40399 c -1.53931,-5.88415 -3.507,-9.85232 -6.5625,-13.2344 -3.2325701,-3.57806 -4.3639901,-5.96376 -4.3639901,-9.20181 0,-5.80484 2.94528,-8.54038 15.0864401,-14.01202 5.452451,-2.45726 9.913561,-5.18087 9.913561,-6.05246 0,-1.82196 -4.80874,-5.85767 -13.138511,-11.02643 -9.5574501,-5.93055 -10.0116501,-12.297084 -1.46532,-20.539724 5.80832,-5.60193 10.132691,-6.91312 17.204541,-5.21661 4.32495,1.03754 7.20668,1.03747 11.06051,-2.6e-4 2.86643,-0.77185 6.31168,-1.05424 7.65611,-0.62753 1.52753,0.48482 3.67762,-0.1942 5.73212,-1.81027 3.91064,-3.07611 14.20055,-3.70229 14.20055,-0.86416 0,3.18273 2.95709,4.52856 6.29882,2.86673 2.63763,-1.31169 3.18538,-2.66788 3.84216,-9.51308 0.91416,-9.52756 2.72066,-11.32559 11.37886,-11.32559 5.23757,0 6.194806,-0.40184 7.189486,-3.01804 1.38019,-3.63017 4.74623,-4.88498 10.30607,-3.84195 3.74706,0.70295 4.25709,0.42298 5.57106,-3.05811 3.40717,-9.026628 15.10685,-1.3649 28.98387,18.9806 2.22738,3.26562 4.54538,5.9375 5.1511,5.9375 0.60574,0 5.78184,-5.32334 11.50246,-11.82965 l 10.40112,-11.82964 12.79389,0.76254 c 12.37358,0.73749 12.94848,0.65479 17.5,-2.51759 2.58836,-1.80408 7.18411,-6.17034 10.21278,-9.702818 7.11558,-8.2992 11.59758,-10.13515 23.54383,-9.64422 l 9.40215,0.38638 2.72041,-7.22452 c 5.07398,-13.4748001 9.31706,-14.9105601 19.16174,-6.48389 6.02629,5.15828 9.78305,5.01008 11.08772,-0.43741 0.44183,-1.8448 1.61715,-4.96791 2.61183,-6.9402501 1.6875,-3.34614 2.2087,-3.54762 7.78987,-3.01134 7.27153,0.6987 12.43203,4.1717401 17.05388,11.4773101 2.48716,3.93136 4.74975,5.87454 7.96006,6.83638 2.46686,0.73909 7.56245,3.97647 11.32353,7.19419 7.65669,6.55054 17.62025,11.683888 22.7136,11.702318 2.47835,0.009 4.62475,-1.482558 8.0772,-5.612788 2.8652,-3.4277 5.7398,-5.625 7.35886,-5.625 1.53886,0 4.89998,2.39313 7.98713,5.68689 2.9316,3.12779 5.97623,5.475048 6.76585,5.216128 1.28206,-0.420378 2.66587,-2.239998 7.93947,-10.439788 1.40975,-2.19198 1.77869,-2.04885 5.89836,2.2882 5.92039,6.23277 6.80035,10.282408 3.5312,16.250698 -1.42605,2.60345 -2.07481,5.05368 -1.4417,5.44497 0.63311,0.39128 2.00532,2.36326 3.04933,4.38216 1.67214,3.23357 1.6809,4.09097 0.0735,7.19928 -1.00358,1.9407 -2.64745,4.21138 -3.65306,5.04596 -1.8791,1.55951 -1.51567,5.72127 0.75274,8.61977 0.67548,0.8631 0.87723,3.76379 0.44833,6.44598 -0.75705,4.73429 -0.61689,4.9722 4.79896,8.1461 10.09969,5.918814 14.7274,15.221174 9.94921,19.999354 -2.85635,2.85636 -7.67335,2.4142 -13.98301,-1.2835 -5.53766,-3.24529 -7.6662,-3.38438 -16.74286,-1.09406 -2.4604,0.62084 -3.99129,0.16039 -5.9375,-1.78582 -3.31263,-3.31261 -5.36296,-3.31 -8.3661,0.0106 -3.62356,4.00669 -10.63538,7.13188 -19.03719,8.48496 -4.17057,0.67166 -8.75975,1.85104 -10.19817,2.62086 -2.76052,1.47739 -7.55943,0.58957 -9.00444,-1.66585 -0.52336,-0.81689 -2.6349,0.5434 -5.40841,3.48419 -3.50755,3.71907 -4.3375,5.42487 -3.62289,7.44604 0.50982,1.44198 1.00229,5.23111 1.09436,8.42027 0.1329,4.60361 0.99198,6.73763 4.16895,10.356 6.71178,7.64429 4.55105,13.55358 -5.54624,15.1682 -2.8091,0.4492 -5.73726,1.20595 -6.50701,1.68169 -2.02659,1.2525 -2.33922,30.62611 -0.39699,37.2998 1.85068,6.3591 6.17689,9.07085 14.47122,9.07085 7.01581,0 12.10206,4.08872 19.33721,15.54478 5.81555,9.20828 9.80499,12.68115 16.70024,14.53785 7.54132,2.03067 10.94312,6.10595 10.94312,13.10964 0,4.49184 1.02733,7.4703 4.53901,13.15969 4.41135,7.14696 4.55484,7.76749 5.10178,22.06341 0.30952,8.09029 1.14909,16.67838 1.8657,19.08463 1.81921,6.10861 6.48412,11.95858 13.62966,17.09215 3.35371,2.4094 10.04499,9.3848 14.86949,15.50088 13.60926,17.25266 16.42694,18.08252 46.24436,13.61982 24.63613,-3.68723 32.77725,-1.83794 37.06285,8.41895 2.43393,5.8252 -0.0379,10.6778 -8.93932,17.54915 -7.35965,5.68121 -8.17198,7.93227 -5.04477,13.97964 1.92959,3.7314 4.19283,5.0894 8.48199,5.0894 1.43346,0 7.86341,2.80895 14.28878,6.24211 6.42537,3.43315 15.19091,7.41851 19.47898,8.85634 10.92662,3.6638 15.05769,6.51321 21.69964,14.96735 7.55653,9.61825 15.36606,13.6842 26.28346,13.6842 4.30142,0 9.16052,0.61043 10.79799,1.35651 4.25684,1.93955 7.1404,7.53859 7.1404,13.8646 0,5.00974 0.37951,5.66438 4.59855,7.93214 14.54685,7.81905 20.34198,19.95347 14.24336,29.82421 -1.32445,2.14364 -3.37766,7.7584 -4.56268,12.47724 -1.94144,7.7309 -2.56851,8.75265 -6.33845,10.32782 -7.77968,3.25057 -18.64365,-0.50983 -24.56304,-8.50211 -2.51769,-3.39935 -2.81255,-5.7741 -2.02668,-16.32196 0.2551,-3.42385 -0.17321,-6.5306 -1.01662,-7.37401 -0.82996,-0.82997 -5.65565,-1.52402 -11.20844,-1.61205 -12.54551,-0.1989 -22.17619,-4.87298 -25.28614,-12.27218 -1.08067,-2.57114 -2.27661,-4.68051 -2.65763,-4.6875 -0.38103,-0.007 -3.28257,1.62969 -6.44785,3.63705 -6.84739,4.34249 -14.47839,15.06205 -19.30479,27.11819 -1.8857,4.71039 -5.28503,10.42082 -7.55406,12.68986 -6.39804,6.39804 -5.20792,10.27375 3.16421,10.3044 3.73604,0.0136 14.46176,4.8902 18.42986,8.37926 5.71913,5.02869 6.98153,8.42808 6.08211,16.37784 -0.52597,4.64901 -0.26273,9.77721 0.69522,13.54382 1.92265,7.55973 0.22455,14.87469 -4.47295,19.26828 -3.03355,2.83731 -4.05749,3.02282 -15.10779,2.73729 -6.51954,-0.16848 -12.93069,0.27007 -14.247,0.97455 -3.49126,1.86846 -5.72739,7.10217 -6.53351,15.29186 -0.91089,9.25391 -4.10792,14.29987 -13.05555,20.60592 -9.77425,6.88863 -13.39976,10.95535 -16.99119,19.05898 -4.80644,10.84515 -6.62736,11.92905 -19.38056,11.53618 -9.8518,-0.30347 -11.18822,-0.65518 -15.42408,-4.05922 -2.5507,-2.04977 -5.46627,-3.72691 -6.47902,-3.72691 -1.08549,0 -4.76853,5.72255 -8.97209,13.94045 -3.92189,7.66724 -9.03251,15.84224 -11.35693,18.16666 -5.04162,5.04162 -5.27745,7.64354 -1.10122,12.14977 2.34521,2.53052 3.125,4.73916 3.125,8.85115 0,3.01357 0.57745,6.99802 1.28321,8.85432 1.5034,3.95424 -0.83832,8.58125 -5.01362,9.90644 -3.77125,1.19693 -6.26959,7.1158 -6.26959,14.8534 0,5.90739 -0.45171,7.20166 -3.29358,9.43708 -3.76608,2.9624 -5.8066,3.08588 -11.08142,0.67058 z m 4.58731,-14.51946 c -0.5112,-7.14405 3.3396,-15.35359 8.60765,-18.35072 3.87671,-2.20556 4.4696,-3.32414 2.43004,-4.58467 -0.6875,-0.4249 -1.25,-3.04125 -1.25,-5.81411 0,-3.14883 -0.93858,-6.23476 -2.5,-8.2198 -1.74573,-2.21934 -2.5,-5.07098 -2.5,-9.45168 0,-5.69575 0.45152,-6.69028 4.90342,-10.80025 3.01254,-2.78116 6.56912,-8.18194 9.22288,-14.00522 2.37569,-5.21313 6.37831,-12.69693 8.8947,-16.63068 5.09731,-7.96838 4.92054,-8.05663 -6.36929,-3.17928 -5.06936,2.19002 -5.3547,2.18608 -9.68296,-0.13373 -7.24914,-3.8853 -12.51064,-3.16673 -19.90156,2.71801 -3.52864,2.80955 -8.31849,5.9033 -10.6441,6.875 -5.99145,2.50339 -16.05346,2.16315 -22.49709,-0.76071 -2.99696,-1.3599 -5.65009,-2.47255 -5.89584,-2.47255 -0.24576,0 -2.41557,1.96875 -4.82182,4.375 -2.40625,2.40625 -5.26544,4.375 -6.35375,4.375 -4.06235,0 -9.34378,-3.95742 -18.36424,-13.76053 -6.97681,-7.58213 -9.8215,-9.87987 -11.45543,-9.25287 -1.19553,0.45878 -5.24025,4.98071 -8.98825,10.04876 -7.54373,10.20065 -9.506,10.98071 -15.31871,6.08964 -2.04262,-1.71875 -4.23227,-3.125 -4.86591,-3.125 -0.63362,0 -2.86923,1.93959 -4.968,4.31019 -3.09318,3.49379 -5.04379,4.47306 -10.29845,5.17011 -5.32836,0.70684 -6.32696,1.21911 -5.60882,2.87733 0.48052,1.10955 1.54595,4.50138 2.36762,7.53741 2.16911,8.01471 6.86789,11.3556 15.63433,11.11617 8.36228,-0.22839 11.02117,1.0792 15.5845,7.66408 3.35697,4.84412 3.81556,5.07471 10.09228,5.07471 5.95835,0 6.9385,0.41342 10.44305,4.40489 2.12715,2.42268 6.89342,6.86948 10.59169,9.88179 l 6.72415,5.47688 3.6003,-2.37355 c 10.09093,-6.65256 21.63035,2.29982 27.88998,21.63728 1.84411,5.69691 6.09298,7.20541 20.32405,7.21573 5.38931,0.004 9.972,0.58666 10.42904,1.32618 0.44843,0.72557 1.74726,1.13679 2.88628,0.91382 1.64538,-0.32209 1.98615,-1.59054 1.65826,-6.17263 z m 70.10125,-90.96819 c 2.76585,-7.42829 12.14463,-17.76861 22.41715,-24.71544 6.13925,-4.15169 8.49745,-8.99505 8.51231,-17.4829 0.009,-5.24245 1.72983,-9.55347 5.898,-14.77728 l 3.41223,-4.2764 13.58995,0.77756 c 14.92694,0.85406 14.81442,0.90007 17.0478,-6.97274 0.91267,-3.21725 0.73742,-5.12446 -0.73196,-7.96595 -1.48241,-2.86666 -1.73352,-5.71181 -1.07918,-12.22749 0.80269,-7.99285 0.68041,-8.60445 -2.08221,-10.41458 -1.61425,-1.0577 -6.56461,-2.76982 -11.00081,-3.80472 -9.66188,-2.25396 -13.62848,-4.92076 -16.79004,-11.28818 -3.1663,-6.37695 -1.69781,-12.7733 3.60365,-15.69662 2.82614,-1.55836 4.73001,-4.47128 7.82102,-11.96612 7.39213,-17.92386 17.06378,-28.89945 29.72805,-33.73598 3.16299,-1.20795 6.81733,-1.75847 8.63853,-1.30138 3.65471,0.91727 6.95195,6.51023 6.95195,11.79228 0,5.0066 4.46914,6.68365 16.57261,6.21889 11.20206,-0.43015 14.61876,1.38999 19.41633,10.34341 2.5885,4.83077 2.86145,6.57843 2.16837,13.88368 -0.71269,7.51197 -0.54147,8.49179 1.69273,9.6875 1.36708,0.73164 4.43116,1.33025 6.80905,1.33025 4.47341,0 5.84091,-1.53704 5.84091,-6.56504 0,-1.43581 1.79377,-6.50221 3.98616,-11.25865 4.56923,-9.91309 4.39195,-10.63809 -4.10445,-16.78576 -12.21475,-8.83813 -13.83682,-10.73581 -14.54471,-17.01609 -0.73486,-6.51972 -0.85068,-6.59056 -12.212,-7.46972 -9.41289,-0.7284 -15.29694,-4.14712 -25.625,-14.88852 -8.129,-8.45432 -10.621,-10.23202 -18.75,-13.3756 -5.15625,-1.99398 -14.31064,-6.21633 -20.34309,-9.38302 -6.03245,-3.16667 -12.1163,-5.7576 -13.51967,-5.7576 -6.40652,0 -14.93033,-7.74176 -18.67085,-16.95782 -1.47629,-3.63731 -2.49195,-7.61126 -2.25707,-8.83099 0.2349,-1.21973 2.95578,-4.09442 6.04639,-6.38819 12.32385,-9.14644 12.96931,-9.78211 12.13644,-11.95255 -1.06065,-2.764 -9.78683,-2.81174 -25.89215,-0.14162 -18.83994,3.12349 -28.18198,2.85634 -35.625,-1.01876 -6.68406,-3.47995 -15.27315,-11.79245 -21.7095,-21.0104 -2.17951,-3.12142 -7.59724,-8.42069 -12.03939,-11.77612 -14.13947,-10.68044 -17.70241,-18.48874 -18.93206,-41.49034 -0.78013,-14.5927 -1.05584,-15.85927 -4.35651,-20.01262 -1.93802,-2.43869 -3.8517,-6.48408 -4.25263,-8.98978 -1.51619,-9.47586 -1.76472,-9.96675 -5.4569,-10.77769 -5.89666,-1.29512 -12.83881,-7.34596 -19.50301,-16.99901 -3.4375,-4.97919 -7.09375,-9.5072 -8.125,-10.06225 -1.03125,-0.55505 -5.08795,-1.62571 -9.01489,-2.37925 -5.63946,-1.08216 -8.42281,-2.52354 -13.24482,-6.85895 -5.70084,-5.12554 -6.20045,-6.06714 -7.54763,-14.22456 -0.79346,-4.80463 -1.44266,-16.06065 -1.44266,-25.0134 0,-18.56684 -0.10775,-18.37855 11.28579,-19.72795 3.41781,-0.40479 6.21421,-1.09885 6.21421,-1.54235 0,-0.44351 -1.72383,-1.82468 -3.83073,-3.06925 -5.46737,-3.22965 -6.89636,-6.99426 -4.45037,-11.72429 1.8981,-3.67051 1.84074,-3.94765 -1.7533,-8.47015 -4.60101,-5.78962 -4.65045,-7.53214 -0.2781,-9.80224 1.89062,-0.9816 5.78395,-4.08981 8.65184,-6.90711 5.33969,-5.2455 9.46046,-6.38784 14.09521,-3.9074 1.48834,0.79654 4.79639,0.75005 9.60531,-0.13497 4.03433,-0.74247 8.63158,-1.58891 10.21611,-1.88098 1.58454,-0.29206 6.00582,-3.60632 9.82504,-7.36501 3.81924,-3.758704 7.4251,-6.834004 8.01304,-6.834004 0.58793,0 3.08129,1.76685 5.54081,3.926344 3.66423,3.21723 4.97015,3.7112 7.23099,2.73519 1.51754,-0.65513 4.9848,-0.80413 7.70504,-0.33111 l 4.94589,0.86003 -3.63737,-3.12873 c -3.05772,-2.630154 -3.57997,-3.923734 -3.27717,-8.117444 0.318,-4.40438 -0.16469,-5.42135 -4.12103,-8.6825 -2.46466,-2.03158 -4.48121,-4.47702 -4.48121,-5.43429 0,-0.95728 1.76236,-3.74772 3.91635,-6.20098 2.154,-2.45326 3.70087,-4.6513 3.4375,-4.88452 -0.26336,-0.23323 -2.30698,-1.35378 -4.54135,-2.49012 -3.11064,-1.58199 -4.0625,-2.87861 -4.0625,-5.53397 0,-1.90735 0.62289,-4.09079 1.3842,-4.8521 1.01226,-1.01227 0.59243,-1.79316 -1.5625,-2.90621 -1.62069,-0.8371 -4.2376,-2.69851 -5.81538,-4.13647 -2.37046,-2.16039 -3.23883,-2.34723 -5,-1.07577 -7.21995,5.2124 -10.10535,6.49365 -14.63132,6.49699 -6.23368,0.005 -18.6815,-5.74502 -25.21295,-11.645778 -2.6673,-2.40975 -8.00961,-5.77885 -11.87181,-7.4869 -5.42092,-2.39739 -8.20187,-4.70243 -12.19564,-10.1086 -6.28984,-8.51424 -9.03974,-8.97116 -12.55246,-2.08567 -4.88178,9.56909 -11.21348,11.17202 -20.16654,5.10535 -3.02533,-2.04999 -5.95343,-3.73749 -6.50689,-3.75 -0.55345,-0.0125 -2.31587,2.93038 -3.91649,6.53976 -1.60061,3.60937 -4.09336,7.62722 -5.53943,8.92855 -2.6497,2.38447 -4.31659,2.58885 -15.86793,1.94559 -7.74602,-0.43135 -12.02079,1.85872 -17.92421,9.602338 -2.3399,3.06927 -6.81273,7.0798 -9.93961,8.91228 -5.23984,3.07075 -6.62414,3.30553 -17.6689,2.99671 l -11.98365,-0.33507 -12.31142,13.25792 c -9.17173,9.87687 -12.97995,13.16182 -14.93288,12.88105 -1.6202,-0.23293 -5.13838,-3.95764 -9.21114,-9.75187 -3.62433,-5.15625 -8.21066,-11.34375 -10.19186,-13.75 l -3.6022,-4.375 -3.13358,2.9074 c -2.80324,2.60091 -3.63803,2.76812 -7.91889,1.58612 -4.25903,-1.17598 -5.27749,-0.98021 -9.26061,1.78009 -2.72506,1.88847 -6.22238,3.10139 -8.942556,3.10139 -5.42069,0 -6.72592,1.47675 -7.638,8.64178 -0.92728,7.28436 -4.21795,11.42741 -10.82583,13.63004 -5.00191,1.6673 -5.8095,1.61198 -10.6256,-0.72786 -3.78317,-1.83801 -5.8134,-2.19589 -7.40482,-1.30529 -1.20591,0.67486 -9.74933,1.36149 -18.98537,1.52584 -15.69237,0.27924 -16.99762,0.49124 -19.91828,3.23505 -4.311751,4.05068 -3.959961,5.55619 2.30564,9.867034 6.34811,4.36761 12.73251,11.31667 13.9651,15.20022 1.53655,4.84123 -1.81594,8.43837 -13.04641,13.99845 -8.175991,4.04785 -10.819901,5.97948 -11.124971,8.12783 -0.24368,1.71606 0.38817,3.1206 1.61575,3.59167 2.76249,1.06007 6.189121,8.23004 8.624001,18.0451 2.65939,10.72009 2.60522,11.44026 -1.16667,15.5102 -1.76116,1.90033 -2.926281,4.17392 -2.589161,5.05243 0.337121,0.87851 1.310931,3.92699 2.164031,6.77439 1.42102,4.74292 2.39631,5.61681 11.62951,10.42045 18.20239,9.46994 23.68545,18.00303 18.41414,28.65729 -2.97827,6.01964 -2.01044,7.51394 4.14971,6.40702 8.03603,-1.44402 16.68817,-6.29957 18.89582,-10.60427 3.92713,-7.65752 15.46697,-19.1704 31.277646,-31.20454 l 6.36459,-4.84435 7.25382,2.49567 c 3.9896,1.37263 10.96929,3.10444 15.51041,3.84848 12.67964,2.07748 15.92644,3.42813 20.24358,8.4212 7.71584,8.92388 14.81357,13.85816 23.7722,16.52614 7.46752,2.22393 9.11022,3.26074 11.93922,7.53567 3.2014,4.83763 3.2596,5.28477 2.41834,18.57971 -0.57961,9.15991 -0.42695,13.89167 0.46599,14.44354 0.73039,0.45141 2.44495,3.01017 3.81012,5.68613 3.02372,5.92697 3.26787,16.06972 0.51497,21.39323 -1.08194,2.09225 -1.64362,4.12765 -1.24815,4.5231 0.39545,0.39546 3.2545,0.13881 6.35343,-0.57033 4.93743,-1.12985 5.44325,-1.05897 4.08892,0.57292 -0.85005,1.02423 -1.66694,3.75986 -1.81532,6.07916 -0.24063,3.76166 0.0759,4.21691 2.93133,4.21691 4.6873,0 12.33085,8.15685 14.09855,15.04531 2.21917,8.64781 2.25914,8.70469 6.11652,8.70469 5.19017,0 11.33285,2.85319 18.72853,8.69914 7.51469,5.94002 9.92084,9.30197 12.85,17.95447 1.8067,5.33685 3.31151,7.16155 9.44376,11.45126 4.27034,2.98725 8.15955,6.89952 9.3809,9.43648 1.14745,2.38351 4.10058,8.46956 6.5625,13.52455 2.46191,5.055 4.4762,10.04246 4.4762,11.08328 0,1.39957 0.73244,1.65471 2.8125,0.9797 5.56361,-1.80545 11.96178,-2.08765 14.65485,-0.64637 3.40798,1.82389 6.67236,9.3204 5.57045,12.79224 -0.72096,2.27151 -0.45784,2.4728 2.13239,1.63129 7.37619,-2.3964 12.87482,-2.08405 16.5762,0.94161 3.50494,2.86506 3.79361,2.89834 8.97626,1.03466 10.46569,-3.76343 17.2304,2.39213 22.55675,20.52558 1.81215,6.16941 3.43968,11.38804 3.61673,11.59696 0.17706,0.20891 2.21348,-0.77335 4.5254,-2.18282 5.8841,-3.5873 9.1694,-3.25854 12.37121,1.23797 2.0844,2.92728 2.52541,4.80976 1.90347,8.125 -0.44522,2.37325 -0.52232,4.31499 -0.17135,4.31499 0.35098,0 2.55404,-1.68218 4.89569,-3.73816 l 4.25754,-3.73818 5.32775,4.21601 c 5.80301,4.59209 12.10684,13.15689 13.36072,18.15278 0.44515,1.77361 -0.0875,5.60045 -1.21655,8.7402 -1.10463,3.07185 -1.76595,5.97751 -1.46958,6.45702 0.29636,0.47953 3.06268,1.25033 6.1474,1.71292 4.35319,0.6528 6.42245,1.82844 9.24475,5.25237 3.55853,4.31713 3.77986,4.39336 10.36565,3.57053 5.80028,-0.7247 7.04496,-0.49216 9.01446,1.68411 3.81946,4.22045 5.68481,11.53751 5.74245,22.52538 0.0513,9.76937 0.29899,10.73802 3.75226,14.67109 5.32739,6.06755 6.40394,11.52919 5.02515,25.49393 -0.81816,8.28649 -0.74512,13.84498 0.24166,18.39399 1.71885,7.9237 0.29688,10.35601 -6.05434,10.35601 -2.35621,0 -6.00277,0.8888 -8.10347,1.97511 -3.73261,1.93022 -3.80036,2.12787 -2.9799,8.69458 1.4932,11.95113 -6.03085,24.02923 -18.24118,29.28198 -4.68536,2.01559 -6.08092,3.25686 -6.06618,5.39559 0.0403,5.84573 2.55383,7.10002 13.56239,6.76784 l 7.95652,-0.24009 z M 43.063034,586.90535 c -3.4375,-1.65461 -7.5091,-3.02844 -9.04799,-3.05295 -3.15673,-0.0503 -15.528931,-10.40462 -17.673281,-14.79086 -2.01951,-4.13089 -1.72869,-9.07277 0.69128,-11.7468 1.15226,-1.27324 5.0463,-3.17294 8.653431,-4.22155 l 6.55841,-1.90659 -0.68214,-6.60933 c -0.76001,-7.36376 0.82112,-11.61753 4.87573,-13.11743 1.76508,-0.65295 3.31827,-3.31125 4.88865,-8.367 l 2.30163,-7.40999 -2.78286,-2.1597 c -1.53057,-1.18784 -3.14456,-2.17221 -3.58663,-2.1875 -0.44207,-0.0153 -1.14121,-0.90719 -1.55365,-1.98199 -1.02723,-2.67692 1.86919,-7.81271 7.35742,-13.04581 2.52356,-2.40625 5.41465,-5.9531 6.42463,-7.8819 l 1.83634,-3.50689 -4.29984,0.80665 c -2.42947,0.45578 -4.63451,0.26514 -5.06923,-0.43825 -0.42316,-0.6847 -1.89383,-0.95086 -3.26815,-0.59147 -1.37431,0.35938 -2.49875,0.29541 -2.49875,-0.14219 0,-1.59487 6.03642,-10.20012 9.22544,-13.15134 1.801,-1.66672 3.27456,-3.44896 3.27456,-3.96055 0,-0.51159 -1.90257,-2.10601 -4.22793,-3.54316 -2.32536,-1.43716 -4.90947,-4.25839 -5.74245,-6.26939 -2.00799,-4.84771 -0.54983,-11.13808 2.95172,-12.7335 2.16959,-0.98852 2.64977,-2.08925 2.28277,-5.2328 -0.35405,-3.03275 0.30346,-4.70264 2.76057,-7.01097 1.77392,-1.66652 3.22532,-4.25104 3.22532,-5.7434 0,-5.05705 3.71059,-6.85084 14.17151,-6.85084 9.58798,0 9.59775,0.004 8.02658,2.8125 -0.8652,1.54687 -3.14922,4.69351 -5.07559,6.99252 -3.74315,4.46723 -3.84005,6.10836 -0.48561,8.22428 1.53727,0.96969 2.70921,0.90201 4.30061,-0.24833 1.20312,-0.86967 4.03476,-2.42922 6.29254,-3.46564 2.25777,-1.03644 4.73555,-3.26824 5.50617,-4.95958 1.30204,-2.85767 12.06796,-9.35575 15.50048,-9.35575 1.76115,0 3.013306,-2.81884 3.013306,-6.7835 0,-6.3214 10.88285,-9.82383 13.76888,-4.43123 0.74626,1.3944 3.4892,3.38848 6.09544,4.43128 6.77583,2.71115 10.41675,9.67565 10.74881,20.56072 0.19321,6.33338 0.92575,9.36749 2.947,12.20607 1.47943,2.07767 2.68988,5.47596 2.68988,7.55176 0,2.0758 0.64204,6.55564 1.42675,9.95521 2.01874,8.74563 0.70315,12.16329 -7.80999,20.28914 l -7.49025,7.14949 2.68157,5.51947 c 2.33952,4.81545 2.50264,6.18393 1.27887,10.7287 -0.77149,2.86507 -2.71059,6.78166 -4.30912,8.70355 -4.26852,5.13198 -5.77784,8.48279 -5.77784,12.82732 0,4.24393 -2.86416,11.97408 -5.55639,14.99627 -0.94107,1.05641 -2.37631,4.452 -3.18942,7.54575 -0.81311,3.09375 -3.12421,8.52131 -5.13579,12.06125 -5.568856,9.79999 -9.230356,10.39985 -16.357446,2.67983 l -4.85501,-5.25894 -4.1064,2.21145 c -2.97072,1.59984 -5.46405,4.85549 -9.01547,11.77194 -5.25425,10.23272 -10.84753,15.3411 -16.65643,15.21242 -1.78895,-0.0396 -6.06514,-1.42584 -9.50264,-3.08045 z m 14.33382,-11.78968 c 1.44797,-2.03348 3.26063,-5.55026 4.02812,-7.81503 2.30561,-6.80363 6.09781,-11.17085 11.94646,-13.75799 6.71702,-2.97126 10.70467,-2.24207 16.09556,2.94323 l 3.90397,3.75507 2.73902,-4.43181 c 1.50646,-2.43752 2.9488,-6.72368 3.2052,-9.52483 0.31251,-3.41414 1.695676,-6.49331 4.195986,-9.341 2.82014,-3.21196 3.94709,-6.01772 4.62074,-11.50424 1.17586,-9.57681 2.36937,-12.48667 6.83095,-16.65442 4.57389,-4.27265 4.77966,-8.55038 0.60017,-12.4768 -4.86815,-4.57339 -4.1817,-9.26444 2.16262,-14.77896 11.93658,-10.37535 13.78925,-12.61302 12.87471,-15.55002 -0.47883,-1.53781 -1.18047,-5.88977 -1.5592,-9.67102 -0.51268,-5.1189 -1.58578,-7.90353 -4.20112,-10.90159 -3.326,-3.81272 -3.47395,-4.48724 -2.78546,-12.69945 l 0.7271,-8.67284 -5.2147,-2.66033 c -5.23055,-2.66843 -7.62895,-2.53793 -7.62895,0.41509 0,2.41826 -4.97888,6.4391 -11.457076,9.25248 -3.20764,1.39304 -6.72782,3.89988 -7.82262,5.57075 -1.09481,1.67089 -4.73645,4.81725 -8.09255,6.99193 -6.93109,4.4912 -13.59035,5.15216 -20.94556,2.07896 -5.60083,-2.34018 -6.68219,-2.34715 -6.68219,-0.0431 0,1.00755 -1.75911,3.63145 -3.90913,5.83089 l -3.90913,3.99897 4.17816,1.98163 c 5.93497,2.81484 8.20218,7.36126 6.69318,13.4218 -0.9823,3.94517 -0.75783,5.62176 1.24871,9.32647 2.17414,4.01419 2.27135,5.10057 0.87379,9.76522 -0.86488,2.8867 -3.56565,7.45472 -6.00172,10.15116 l -4.42921,4.90261 3.25267,3.86558 c 4.03068,4.79018 4.04567,6.25046 0.13272,12.9274 -1.71597,2.92808 -3.48363,7.97712 -3.92813,11.2201 -0.66031,4.81751 -1.46169,6.23425 -4.38004,7.74338 -3.19076,1.65001 -3.57187,2.49961 -3.57187,7.96275 0,8.19207 -0.80524,9.85075 -5.79418,11.93527 -4.9818,2.08153 -6.11088,4.29468 -4.56184,8.94183 1.23029,3.69085 1.29966,3.73855 12.15963,8.361 8.29578,3.53103 10.11092,3.17063 14.40521,-2.86014 z"
     style="fill:#006631;fill-opacity:1"
     sodipodi:nodetypes="cssssscssssssscssscsssssscsscssssssscscccsssssssssscssssssssssssscssssssssscsssssssssssssssscsscsscsscssssssssssssssssssssscsssscsssssssscsssssssssssssssssssssssssssssssssssssssssssssssssssssssssscssscssssssssssssssssssssccssssssssssssssssssssssssssssssscsscssssscscssssssssssssssssssssssssssscssssssssssssssssssssssssssssssscssssscsssssscssssscsssssscsssscsssssssssssssssssssssssscssssssssscscssssssssssssssssscssssscssscsssssssssssssscsssssscssscscssscssssssssssssscsssssssssssssscsssssssscsscssssscssssssscssscsssssssscssssscsssssssss" />
  <path
     inkscape:connector-curvature="0"
     id="path3342"
     d="m 869.33671,769.9206 c -40.7471,-2.28136 -79.1534,-13.0037 -108.2993,-30.23524 -14.2392,-8.41845 -22.934,-15.12922 -35.8986,-27.70718 -24.664,-23.92838 -41.9539,-50.91335 -52.1559,-81.4016 -21.8346,-65.25168 -11.478,-135.81915 28.7943,-196.19744 43.2883,-64.89996 107.2717,-97.07946 186.93448,-94.01592 24.27,0.93333 38.4498,3.99087 73.9192,15.93886 16.2493,5.47363 31.0712,9.95206 32.9375,9.95206 7.06501,0 14.36761,-11.26256 14.38631,-22.1875 0.01,-3.97213 0.1304,-4.0625 5.5554,-4.0625 l 5.5484,0 0.7103,5.3125 c 0.3907,2.92187 2.6729,30.0625 5.0715,60.3125 2.3987,30.25 4.6514,57.10937 5.0061,59.6875 l 0.6449,4.6875 -5.4777,0 -5.4777,0 -3.4014,-9.6875 c -4.354,-12.40081 -15.0703,-33.97177 -21.80021,-43.88209 -19.8143,-29.17774 -50.0472,-47.8571 -86.3726,-53.36507 -32.62418,-4.9468 -66.99018,0.15166 -93.76108,13.91018 -41.9514,21.56032 -72.0729,69.97873 -82.0076,131.82207 -2.8646,17.83185 -2.9189,60.449 -0.1006,78.93755 7.4741,49.03166 27.2294,91.52531 55.7171,119.84712 13.2836,13.20634 22.6107,19.81433 39.5889,28.0478 40.944,19.85551 88.58608,18.96479 134.00078,-2.50526 l 11.5625,-5.46624 -0.01,-66.01677 c -0.01,-67.84343 -0.872,-84.51299 -4.8278,-93.42314 -2.593,-5.84061 -10.9778,-13.89254 -17.1541,-16.47315 -3.5568,-1.48616 -22.2128,-4.15099 -29.5703,-4.22384 -1.7563,-0.0174 -2.1878,-1.1311 -2.1878,-5.64666 l 0,-5.625 79.37501,0 79.375,0 0,5.44157 0,5.44159 -9.0625,0.79354 c -11.9351,1.04506 -17.0476,2.58819 -23.0996,6.97224 -5.4606,3.95564 -9.5254,11.15097 -11.745,20.79046 -0.9469,4.11219 -1.6092,31.79976 -1.9759,82.60032 l -0.5515,76.41473 -16.3302,7.7797 c -45.29131,21.57676 -93.31371,30.48629 -147.86029,27.43231 z m 224.37499,-14.166 0,-5.49951 9.3354,-2.07691 c 5.1344,-1.14232 12.8688,-3.87065 17.1875,-6.06298 9.889,-5.0201 17.562,-14.84609 28.9624,-37.0892 4.4108,-8.60577 40.9482,-92.75147 81.1942,-186.99044 40.246,-94.23897 73.8603,-172.84835 74.6983,-174.6875 1.2957,-2.84403 2.2997,-3.34392 6.716,-3.34392 l 5.1923,0 71.7034,171.5625 c 39.4369,94.35937 74.946,178.4689 78.9093,186.91006 16.2932,34.7025 29.0055,46.60296 53.9137,50.4712 l 9.6875,1.50446 0,5.40088 0,5.40089 -81.25,0 -81.25,0 0,-5.39748 0,-5.39745 10.8804,-1.45577 c 13.7805,-1.84383 23.0532,-6.19157 27.4837,-12.88634 3.0102,-4.54863 3.1889,-5.61135 2.555,-15.18939 -0.8248,-12.4648 -3.4087,-19.99656 -21.973,-64.04856 l -13.696,-32.5 -80.2091,0 -80.209,0 -15.5702,36.25 c -17.4499,40.62641 -21.7618,52.91145 -21.7618,62.0016 0,15.39614 10.4872,22.95376 36.4761,26.28671 l 11.0239,1.41376 0,5.46146 0,5.46146 -65,0 -65,0 z M 1364.7533,600.084 c -4.206,-11.81186 -69.4021,-164.66956 -69.975,-164.06209 -0.8255,0.87546 -71.0666,163.62416 -71.0666,164.66142 0,0.31395 31.8281,0.57081 70.7291,0.57081 43.3979,0 70.5683,-0.45216 70.3125,-1.17014 z m 183.9584,155.54513 0,-5.62499 11.6124,0 c 27.9462,0 42.4929,-10.12266 45.7191,-31.81512 1.8895,-12.70343 1.9898,-313.84608 0.1087,-325.68488 -1.7324,-10.90334 -5.6956,-18.51415 -12.1826,-23.39626 -7.1939,-5.41407 -15.453,-7.6694 -31.6986,-8.6561 l -13.5587,-0.82349 0,-5.59641 0,-5.5964 94.0625,0.69575 c 54.631,0.4041 99.8266,1.28078 107.8125,2.09132 46.6502,4.73479 68.0662,13.27967 90.625,36.15905 12.9582,13.14238 18.5901,21.58818 23.1416,34.70429 14.0087,40.3682 0.9587,85.76551 -31.929,111.07204 -13.8322,10.6436 -32.205,19.17523 -53.4637,24.82645 l -10.3758,2.75826 45.8133,63.69325 c 49.7868,69.21734 59.3364,81.61134 73.2558,95.07581 16.4755,15.93691 31.5674,23.48078 56.6125,28.29832 l 14.4452,2.77859 0,5.33276 0,5.33276 -55.3125,-0.072 -55.3125,-0.072 -69.375,-96.14919 -69.375,-96.1492 -21.626,-0.0289 -21.626,-0.0289 0.4785,74.6875 c 0.5035,78.5892 0.761,82.27891 6.3158,90.52161 3.5868,5.32252 12.212,11.82839 18.0519,13.61619 2.5607,0.78395 11.2652,1.71955 19.3433,2.0791 l 14.6875,0.65374 0,5.47091 0,5.47094 -88.125,0 -88.125,0 0,-5.625 z m 170.5439,-208.72958 c 24.7622,-4.40955 43.181,-13.24573 57.5161,-27.59268 9.9734,-9.98155 17.0257,-21.13794 20.8941,-33.05273 3.6289,-11.17741 4.5368,-35.69612 1.8051,-48.75 -6.2281,-29.76234 -29.4753,-54.04971 -59.5092,-62.17175 -11.1811,-3.02369 -40.5643,-2.93547 -59.6875,0.17921 l -14.0625,2.29043 0,86.2916 0,86.2916 20.9375,-0.74839 c 11.5156,-0.41161 25.9635,-1.64339 32.1064,-2.73729 z m 244.4561,208.88364 0,-5.47091 14.8409,-0.52914 c 13.6603,-0.48704 15.4962,-0.85179 23.0805,-4.58549 9.8084,-4.82862 15.1184,-10.76629 18.0591,-20.19351 1.9796,-6.34633 2.1445,-19.3229 2.1445,-168.75 0,-172.48064 0.089,-169.79204 -5.9535,-179.80703 -3.3077,-5.48237 -11.0931,-11.02586 -18.627,-13.26321 -3.3255,-0.98756 -12.2335,-2.18709 -19.7955,-2.66559 l -13.749,-0.86998 0,-5.60643 0,-5.60642 94.0625,0.69575 c 110.6299,0.81831 128.4405,2.08212 155.3125,11.0207 33.5738,11.1678 59.1206,37.07247 68.341,69.29795 4.017,14.03982 4.0013,38.08158 -0.035,52.35852 -7.7482,27.41141 -25.8935,49.13506 -52.6816,63.0709 -10.4434,5.4329 -26.8841,11.4857 -37.8125,13.92099 -3.9531,0.88093 -7.1875,1.77984 -7.1875,1.99759 0,1.17764 95.3034,132.5596 101.8857,140.45626 10.8788,13.05086 27.5119,28.58295 35.9489,33.56927 9.5173,5.62487 25.0799,10.8753 39.9484,13.47765 l 12.217,2.13828 0,5.40739 0,5.4074 -55.3125,-0.0412 -55.3125,-0.0412 -69.375,-96.14744 -69.375,-96.14744 -21.6255,-0.0614 -21.6257,-0.0614 0.419,75.3125 c 0.4722,84.88243 0.3564,83.77329 9.8196,94.03963 7.7517,8.40962 15.1268,10.9869 33.3251,11.6455 l 15.3125,0.55417 0,5.47409 0,5.4741 -88.125,0 -88.125,0 0,-5.47094 z m 156.9704,-207.1512 c 34.9034,-3.50743 59.8044,-15.07724 77.078,-35.81284 7.5721,-9.08976 14.2697,-22.65624 16.5886,-33.60138 2.3885,-11.27415 2.3471,-29.43639 -0.095,-41.45383 -6.1109,-30.0756 -28.9792,-54.12967 -59.2924,-62.36672 -11.2626,-3.06044 -40.6329,-3.00812 -59.6875,0.10637 l -14.0625,2.29849 0,86.10105 0,86.10106 12.9079,0 c 7.0994,0 19.0525,-0.61746 26.5625,-1.37215 z"
     style="fill:#003883;fill-opacity:1"
     sodipodi:nodetypes="sssssssscsccsscccssssssssscssssscccccsssscssccsssscscssscccccccsscscccsssccccccccsscccscssscccsssssscssscccccccccsssscccccccsssssscccssccssssssscccssscsssssscccccccccsssccccccccsscsscccscc" />
  <path
     inkscape:connector-curvature="0"
     id="path4144"
     d="m 584.37746,264.93335 c -29.54993,-3.9934 -55.50463,-16.8318 -74.00056,-36.604 -14.83369,-15.8572 -23.34277,-32.7351 -28.14517,-55.8263 -2.09561,-10.0763 -2.37273,-15.0938 -1.82955,-33.125 0.77663,-25.77959 2.96944,-35.23519 12.75488,-54.999995 17.09445,-34.5278 47.52346,-57.4173 87.4704,-65.7978 4.21509,-0.8843 15.71226,-1.5449 26.25,-1.5083 26.48855,0.092 42.39762,3.8077 66.4103,15.5108 13.79102,6.7214 14.91459,6.9796 18.51611,4.2555 3.21423,-2.4311 5.24458,-2.3172 6.2778,0.3523 1.05144,2.7165 6.92079,45.4987 6.92079,50.4462 0,4.8143 -4.14947,4.9198 -7.03337,0.1788 -1.15005,-1.8906 -4.45258,-7.0938 -7.33895,-11.5625 -15.62382,-24.1891 -36.53835,-40.2488 -60.34557,-46.3377 -11.95006,-3.0563 -35.00977,-3.2606 -48.77231,-0.4322 -27.878,5.7295 -49.40586,22.3167 -61.51213,47.3949 -9.2013,19.0606 -12.7197,42.535795 -10.2595,68.452695 2.53987,26.7562 8.76977,45.8904 20.85527,64.0538 17.19471,25.8421 39.75835,40.4332 68.78156,44.4788 37.92649,5.2867 83.20587,-15.7231 100.02943,-46.414 5.57426,-10.169 7.53943,-12.2524 9.6069,-10.185 1.04048,1.0405 0.64877,5.7164 -1.50872,18.0095 -2.878,16.3987 -2.97883,16.6675 -8.14681,21.7169 -9.62778,9.407 -38.62809,21.8577 -60.91557,26.1528 -12.57309,2.4231 -42.13734,3.4018 -54.06523,1.7898 z m 212.32865,-0.046 c -38.255,-6.394 -63.78088,-39.3732 -61.18755,-79.0538 2.11236,-32.3214 24.24271,-59.4588 56.3589,-69.1103 10.3582,-3.11289 33.40064,-3.11569 43.68465,0 16.10375,4.8704 29.2708,13.9212 40.35256,27.7375 17.56218,21.8959 20.42978,54.2996 7.14089,80.6916 -14.81534,29.4235 -50.3179,45.7627 -86.34945,39.7404 z m 35.71435,-8.087 c 14.13427,-3.967 25.81035,-16.5646 30.81952,-33.2521 3.61958,-12.0581 3.34117,-40.5761 -0.52828,-54.114 -5.91748,-20.7033 -17.42793,-36.3455 -32.26554,-43.8477 -6.72401,-3.3998 -8.38517,-3.7008 -20.4437,-3.7046 -11.77366,0 -13.8972,0.3572 -20.625,3.5052 -14.29132,6.6868 -24.29496,21.1639 -27.7281,40.1275 -3.29054,18.176 0.1468,42.0044 8.50985,58.9922 4.71645,9.5805 16.64456,22.9987 24.57732,27.6476 11.15102,6.5349 24.9096,8.2311 37.68393,4.6459 z m 314.23714,7.0444 c -4.9335,-1.3376 -10.8398,-3.4013 -13.125,-4.5861 -2.2853,-1.1848 -6.9676,-2.7795 -10.4051,-3.5436 l -6.25,-1.3894 -0.8421,-16.8489 c -1.0249,-20.5086 -0.2505,-25.5988 3.8948,-25.5988 2.572,0 3.2337,1.0692 5.2764,8.5263 4.4768,16.3424 11.6603,26.8029 22.4656,32.7142 5.701,3.1188 8.1141,3.6751 16.1106,3.7139 7.6903,0.037 10.5375,-0.5368 15.6139,-3.1479 11.5706,-5.9515 17.253,-20.7347 12.6265,-32.8489 -3.603,-9.4345 -9.7219,-13.8106 -34.2486,-24.4936 -19.6755,-8.57 -31.3844,-17.8243 -35.9861,-28.4422 -3.18,-7.3373 -2.8873,-20.8123 0.6257,-28.8056 7.2436,-16.4822 28.1965,-26.81899 50.5349,-24.93069 8.8112,0.7448 25.0224,4.95909 27.8209,7.23219 2.1388,1.7374 4.6466,26.7478 2.992,29.8395 -2.2473,4.1991 -4.8849,2.8646 -7.9945,-4.0447 -6.848,-15.2163 -16.8102,-23.0893 -30.8242,-24.3601 -16.9053,-1.5329 -28.6748,7.1037 -28.6861,21.0502 -0.01,10.3249 7.8907,18.1412 25.7422,25.4724 15.7642,6.474 31.0635,14.0195 36.357,17.9309 10.8027,7.9822 15.8937,23.0799 13.0276,38.6346 -1.9643,10.6606 -6.3951,18.8359 -14.1299,26.0708 -13.4813,12.6102 -31.897,16.9253 -50.5965,11.8555 z m 151.4699,0.4343 c -25.7054,-5.7104 -46.3223,-23.9301 -54.3448,-48.0261 -3.4518,-10.3674 -4.6887,-29.5033 -2.6009,-40.2365 5.082,-26.1263 25.9802,-49.5168 51.9457,-58.1409 8.5688,-2.84599 12.1469,-3.32479 25,-3.34569 16.6855,-0.027 21.859,1.07879 35.51,7.59009 12.7811,6.0964 27.9701,21.0873 34.4383,33.9889 10.7069,21.3567 10.688,46.2392 -0.053,68.5693 -8.467,17.6035 -27.5064,33.0194 -47.3959,38.3757 -11.1045,2.9905 -31.8598,3.5888 -42.5,1.2252 z m 44.5848,-9.5502 c 12.4305,-5.6909 20.4647,-16.028 25.5743,-32.9043 3.3231,-10.976 2.9995,-37.6219 -0.6216,-51.1966 -5.4663,-20.4911 -16.799,-36.4233 -31.6231,-44.4574 -7.6494,-4.1457 -8.3749,-4.2894 -21.6644,-4.291 -12.5315,0 -14.3818,0.3086 -20.8783,3.4988 -13.6035,6.6802 -24.3435,22.4267 -27.3225,40.0588 -1.8031,10.6723 -0.878,30.6612 1.918,41.4408 6.3698,24.5576 23.6648,44.7716 42.9608,50.2114 9.021,2.5431 23.2659,1.481 31.6567,-2.3605 z m 256.0402,9.5183 c -13.4771,-3.6095 -20.7479,-11.0295 -24.3201,-24.8194 -1.5786,-6.0942 -1.9299,-16.2744 -1.9299,-55.9375 l 0,-48.4873 -10,0 c -8.5391,0 -10,-0.3074 -10,-2.104 0,-1.1571 5.7886,-7.7665 12.8635,-14.6875 7.075,-6.92089 16.2504,-17.36379 20.3899,-23.206295 11.0776,-15.635 11.7466,-15.2844 11.7466,6.156105 l 0,17.59169 20.7057,0 c 18.3755,0 21.4044,-0.3005 26.9131,-2.6703 3.4139,-1.46869 6.5586,-2.31899 6.988,-1.88959 1.0863,1.08629 -5.801,17.33629 -8.1578,19.24739 -1.3847,1.1229 -8.365,1.5625 -24.8129,1.5625 l -22.8861,0 0.013,42.8125 c 0.013,46.5585 1.1163,62.2506 4.7283,67.0885 4.2292,5.6647 11.1183,8.224 22.1372,8.224 8.7383,0 11.1305,-0.53 18.9594,-4.2 10.0266,-4.7004 12.6457,-4.4461 9.8519,0.9565 -1.1399,2.2043 -4.9789,5.1577 -10.4232,8.0186 -15.4473,8.1173 -28.7651,10.0931 -42.7631,6.3441 z m 216.7409,0.2436 c -13.7588,-3.3394 -25.0454,-11.9742 -30.9776,-23.6991 -6.1211,-12.0978 -6.9679,-20.0976 -6.9916,-66.0424 -0.015,-29.9586 -0.4531,-43.0755 -1.5151,-45.4063 -1.6651,-3.6547 -6.8797,-6.8311 -11.257,-6.8571 -5.2912,-0.031 -8.4996,-1.4742 -8.4996,-3.8221 0,-2.5648 0.4949,-2.6778 21.25,-4.85119 7.2188,-0.7559 15.2253,-1.7015 17.7924,-2.1014 7.3027,-1.1376 7.4422,-0.066 6.5226,50.09159 -1.0942,59.6742 0.5635,70.0697 13.0205,81.6525 5.3931,5.0147 15.1338,9.2819 22.7673,9.9741 14.7722,1.3395 33.321,-7.8473 39.4938,-19.5605 2.8898,-5.4833 2.9034,-5.7315 2.9034,-52.8527 0,-38.5542 -0.3369,-48.1498 -1.8145,-51.6863 -1.966,-4.7052 -5.8206,-6.8269 -12.403,-6.8269 -2.23,0 -5.1465,-0.8094 -6.4811,-1.7986 -2.1699,-1.6085 -2.2261,-2.0022 -0.5323,-3.7245 1.3494,-1.372 5.6638,-2.15039 15,-2.70649 7.2083,-0.4292 16.4174,-1.6011 20.4648,-2.6041 5.4004,-1.3382 7.7291,-1.4536 8.75,-0.4335 0.9705,0.9697 1.5801,21.49679 2.0161,67.89109 0.3438,36.5756 1.0904,67.442 1.6591,68.5919 1.4649,2.9616 4.0804,3.883 13.329,4.696 6.1477,0.5404 8.2073,1.2081 8.5014,2.7561 0.5069,2.6679 -5.6628,4.8321 -13.7755,4.8321 -3.3896,0 -11.5139,0.631 -18.0539,1.4024 -14.8905,1.7561 -15.5446,1.2903 -16.3324,-11.6293 l -0.5577,-9.1481 -8.0184,7.8821 c -15.2637,15.0043 -36.0075,20.8965 -56.2607,15.9807 z m -386.3429,-2.3551 c -1.068,-1.7282 1.9071,-4.1786 6.8836,-5.6696 10.0049,-2.9976 9.5481,-0.3278 9.9573,-58.2069 l 0.3638,-51.4841 -2.9013,-4.3054 c -3.8071,-5.6494 -7.5933,-7.4218 -15.9514,-7.4674 -7.8709,-0.043 -10.4322,-1.2066 -9.8067,-4.4548 0.342,-1.7754 2.516,-2.6482 9.8105,-3.9385 6.7418,-1.1926 13.6671,-3.7981 24.6821,-9.2862 12.4864,-6.22129 15.6504,-7.34689 17.1511,-6.10139 1.399,1.1611 1.9238,5.21439 2.1891,16.90709 l 0.3489,15.3798 8.125,-10.1111 c 14.2566,-17.7414 25.263,-22.72739 37.0035,-16.763 7.3971,3.7579 15.4965,11.3701 15.4965,14.5644 0,3.2188 -10.8941,16.3044 -13.574,16.3044 -1.2026,0 -4.9685,-1.7912 -8.3688,-3.9804 -4.8006,-3.0908 -7.8583,-4.0799 -13.6822,-4.4257 -9.2359,-0.5483 -15.5142,2.6245 -21.198,10.7126 l -3.802,5.4103 0,43.9541 c 0,39.6995 0.2143,44.3462 2.2135,48.0048 3.2281,5.9074 7.2364,7.9684 17.8016,9.1532 10.5907,1.1877 12.1613,1.813 11.6167,4.6248 -0.3367,1.738 -4.7124,1.9825 -37.0637,2.0709 -20.1751,0.055 -36.9578,-0.3461 -37.2951,-0.8919 z m 243.6516,-0.6543 c -0.8327,-2.1709 1.295,-4.1759 6.1449,-5.79 2.1705,-0.7224 5.124,-2.9018 6.5634,-4.8431 2.5606,-3.4535 2.6171,-4.6874 2.6171,-57.1532 0,-53.5119 0,-53.6291 -2.7383,-56.3612 -1.953,-1.9528 -4.7376,-2.9037 -9.7104,-3.3161 -11.9986,-0.995 -10.6648,-3.9596 4.3237,-9.6111 5.1563,-1.9441 14.3555,-6.0154 20.4429,-9.0473 6.0872,-3.03179 11.431,-5.14969 11.875,-4.70639 0.4438,0.4434 1.0884,31.40369 1.4321,68.80069 l 0.625,67.9946 3.224,3.223 c 2.4672,2.4663 5.3189,3.5339 12.1469,4.5473 9.9596,1.4782 14.2891,3.6926 11.9201,6.0968 -2.2295,2.2625 -68.0014,2.4211 -68.8664,0.166 z m -748.76927,-1.3749 c 0.1896,-0.9779 2.8426,-3.0987 5.8958,-4.713 12.7419,-6.7369 12.8519,-7.3276 12.3444,-66.3013 -0.4844,-56.2846 -0.2214,-55.3392 -15.3956,-55.3392 -8.1556,0 -10.625,-0.8586 -10.625,-3.6944 0,-1.673 2.3873,-2.8081 10.3125,-4.9036 5.6719,-1.4997 16.1846,-5.5417 23.3617,-8.9822 7.17704,-3.44059 13.78644,-5.97269 14.68754,-5.62689 1.2272,0.4709 1.6383,4.4555 1.6383,15.87909 l 0,15.2505 9.2384,-8.958 c 20.2428,-19.62839 42.86423,-23.95909 65.65673,-12.5696 8.9886,4.4916 19.3092,15.2739 23.3505,24.3949 5.6027,12.645 6.7539,22.7703 6.7614,59.47 0,19.4121 0.5584,36.1008 1.2865,38.7223 1.5903,5.7256 7.3107,10.6874 13.4308,11.6496 9.7812,1.5379 12.1507,2.5194 12.1507,5.033 0,2.3652 -1.0745,2.4463 -32.5,2.4532 l -32.5,0.01 -0.3904,-2.7434 c -0.3185,-2.2382 0.487,-2.9861 4.375,-4.0621 5.8688,-1.6242 7.1283,-2.4577 8.9533,-5.9248 1.822,-3.4615 1.9891,-73.3021 0.1987,-83.0366 -3.2114,-17.4611 -14.1482,-30.155 -29.5797,-34.3321 -18.84143,-5.1001 -40.81133,2.8897 -47.83353,17.3958 -2.4771,5.1169 -2.5983,7.3769 -2.5965,48.4103 10e-4,38.4747 0.2339,43.5072 2.1875,47.4179 2.6769,5.3585 10.3582,9.5137 19.7585,10.6882 6.2697,0.7833 10.6823,3.3482 8.873,5.1576 -0.432,0.4319 -17.1203,0.8417 -37.0853,0.9105 -30.76094,0.106 -36.24724,-0.1462 -35.95524,-1.6528 z m 1034.71967,-0.3813 c 0,-1.3984 2.2446,-3.1183 6.4061,-4.9086 10.0279,-4.3139 9.8439,-3.1838 9.8439,-60.4386 0,-60.8634 0.066,-60.6001 -15.2304,-60.6441 -13.6186,-0.039 -12.6465,-4.0486 2.1054,-8.6832 4.8125,-1.512 14.8317,-5.6336 22.2651,-9.1591 11.2503,-5.33599 13.7083,-6.10459 14.6683,-4.58689 0.6344,1.0028 1.162,7.10799 1.1725,13.56709 l 0.019,11.7438 6.6738,-6.3117 c 16.343,-15.45659 39.5181,-20.43209 59.8086,-12.8405 4.9985,1.8702 8.8539,4.6019 13.7694,9.756 3.755,3.9372 7.4791,8.3774 8.276,9.8671 1.3975,2.6124 1.7274,2.4299 9.3082,-5.151 12.8787,-12.8786 28.6715,-19.09349 45.289,-17.82249 22.4028,1.71359 37.5199,14.23189 44.0956,36.51499 1.3813,4.6804 2.0404,16.7659 2.6244,48.125 0.7233,38.8292 0.9619,42.1837 3.28,46.1193 3.4599,5.8741 7.975,8.9244 15.8128,10.6828 4.9987,1.1216 6.7777,2.1092 7.0457,3.9116 0.3464,2.3303 -0.7452,2.4103 -32.4887,2.3812 -29.5398,-0.027 -32.8871,-0.2381 -33.245,-2.0962 -0.2709,-1.4068 1.321,-2.8352 4.9886,-4.476 10.854,-4.8557 10.3866,-2.6581 10.3866,-48.8414 0,-46.4674 -0.7717,-51.8523 -9.1457,-63.818 -11.616,-16.5981 -33.8118,-19.7065 -52.2106,-7.3117 -10.5778,7.1259 -10.2352,4.9364 -9.3406,59.6984 0.6158,37.6912 1.1687,48.892 2.5504,51.6628 2.1139,4.2391 8.6111,7.7851 16.4065,8.9541 6.8428,1.0261 9.1133,2.2635 8.3508,4.551 -0.462,1.3857 -6.8453,1.7082 -33.9024,1.7131 -30.115,0 -33.3334,-0.1926 -33.3334,-2.0517 0,-1.2329 1.9976,-2.8572 4.9831,-4.0517 10.592,-4.2381 10.0169,-1.2281 10.0169,-52.4257 0,-51.4684 -0.3676,-54.1573 -8.6971,-63.6202 -6.9469,-7.8921 -15.016,-11.1407 -27.6033,-11.113 -7.2973,0.016 -11.4882,0.7237 -16.1425,2.7259 -6.5351,2.8113 -14.2997,10.2505 -16.3628,15.6771 -0.6787,1.7849 -1.1943,22.5525 -1.1943,48.0998 0,48.7487 0.2369,50.6836 6.8416,55.879 1.8672,1.4686 6.7068,3.3218 10.7549,4.1182 7.0139,1.3799 11.2318,3.9696 9.4186,5.7829 -0.4626,0.4626 -16.0116,0.8709 -34.5531,0.9073 -31.0917,0.061 -33.712,-0.1013 -33.712,-2.0867 z M 1692.5803,71.669655 c -8.5613,-9.7262 -8.3683,-14.5111 0.976,-24.2057 3.6667,-3.8041 7.0676,-6.211 8.7761,-6.211 3.2342,0 7.5189,4.2644 12.0455,11.9884 4.0249,6.8679 3.3661,9.8323 -4.0071,18.0331 -7.4603,8.2976 -10.7698,8.3711 -17.7905,0.3952 z"
     style="fill:#006634;fill-opacity:1"
     sodipodi:nodetypes="ssssssssssssssssssssssssscsscssccsssscsssssccscsssssscsssscscscsssscccsssssscscccscscssssccccscssssscscccsccssssscsscccssssssscscsccsscscscssccsscsscsscsssscssssssscscscsccssscssccsccscccsssssssscsssccsssccssssscsscscccssssscscssscsscssscscsssssssccsssssscscscscssssss" />
</svg>
